<svg width="162" height="36" viewBox="0 0 162 36" fill="none" xmlns="http://www.w3.org/2000/svg">
<g id="Logo">
<g id="Mallcomm logo">
<g id="Group">
<path id="Vector" d="M21.3853 0.439453C11.896 0.439453 4.19818 8.30475 4.19818 18.0004C4.19818 27.6961 11.896 35.5614 21.3853 35.5614C30.8746 35.5614 38.5724 27.6961 38.5724 18.0004C38.5724 8.30475 30.881 0.439453 21.3853 0.439453ZM30.4527 24.0287C30.4527 24.4001 30.2839 24.5858 29.9594 24.5858H28.7586C28.4081 24.5858 28.2394 24.4001 28.2394 24.0287V16.5348C28.2394 16.0573 28.2069 15.613 28.1355 15.2151C28.0641 14.8172 27.9343 14.4723 27.7461 14.1871C27.5579 13.902 27.2917 13.6831 26.9477 13.5173C26.6102 13.3582 26.1754 13.2786 25.6561 13.2786C25.1369 13.2786 24.5527 13.398 23.9621 13.6367C23.3714 13.8755 22.8522 14.1739 22.3978 14.532C22.4303 14.658 22.4627 14.8437 22.4887 15.0891C22.5147 15.3411 22.5341 15.5997 22.5536 15.8783C22.5731 16.1568 22.5861 16.4353 22.5926 16.7205C22.599 17.0057 22.6055 17.251 22.6055 17.4633V24.0221C22.6055 24.3935 22.4368 24.5792 22.1058 24.5792H20.905C20.5545 24.5792 20.3857 24.3935 20.3857 24.0221V16.5282C20.3857 16.0639 20.3533 15.6395 20.2949 15.2482C20.2365 14.857 20.1131 14.5121 19.9314 14.2203C19.7497 13.9285 19.503 13.6964 19.185 13.524C18.8734 13.3582 18.4516 13.272 17.9323 13.272C17.3222 13.272 16.725 13.4245 16.1344 13.7229C15.5437 14.028 15.0115 14.3994 14.5442 14.8437V24.0155C14.5442 24.3868 14.3754 24.5725 14.0509 24.5725H12.8242C12.4932 24.5725 12.3309 24.3868 12.3309 24.0155V12.2308C12.3309 11.8727 12.4932 11.7002 12.8242 11.7002H13.9471C14.2976 11.7002 14.4663 11.8594 14.4663 12.1777L14.4923 13.0067C15.0505 12.4894 15.6736 12.0981 16.3551 11.8196C17.0431 11.5411 17.7441 11.4084 18.458 11.4084C19.172 11.4084 19.847 11.5411 20.4377 11.8063C21.0283 12.0716 21.5021 12.4894 21.8461 13.0598C22.4563 12.5093 23.1443 12.0981 23.9101 11.8196C24.676 11.5411 25.4419 11.4084 26.2078 11.4084C27.097 11.4084 27.8175 11.561 28.3757 11.8594C28.9339 12.1645 29.3687 12.5624 29.6803 13.0598C29.9594 13.5041 30.1606 14.0214 30.2774 14.605C30.4007 15.1885 30.4592 15.8584 30.4592 16.6077V24.0221L30.4527 24.0287Z" fill="white"/>
<path id="Vector_2" d="M64.3988 25.7138H62.6529C62.0882 25.7138 61.7636 25.3955 61.7636 24.8384V17.9148C61.7636 17.5965 61.7377 17.2915 61.6922 17.0063C61.6468 16.7476 61.5624 16.5288 61.4456 16.3431C61.3288 16.1707 61.1665 16.0248 60.9653 15.9187C60.7641 15.8126 60.485 15.7595 60.1475 15.7595C59.7061 15.7595 59.2388 15.8656 58.7715 16.0712C58.3366 16.2635 57.9472 16.489 57.6096 16.7609C57.6161 16.867 57.6226 17.0328 57.6291 17.3047C57.6356 17.696 57.6486 18.1204 57.6551 18.5847C57.6616 19.0489 57.6681 19.4799 57.6811 19.8845C57.6875 20.289 57.694 20.5344 57.694 20.6206V24.8451C57.694 25.4021 57.389 25.7205 56.8567 25.7205H55.2211C54.6629 25.7205 54.3384 25.4021 54.3384 24.8451V17.9215C54.3384 17.6031 54.3189 17.2915 54.28 17.0063C54.241 16.7476 54.1696 16.5288 54.0528 16.3431C53.9425 16.164 53.7932 16.0314 53.5985 15.9253C53.4037 15.8192 53.1376 15.7661 52.8001 15.7661C52.3587 15.7661 51.9174 15.8789 51.476 16.1044C51.0541 16.3232 50.6582 16.5885 50.2947 16.8936V24.8451C50.2947 25.4021 49.9832 25.7205 49.438 25.7205H47.705C47.1468 25.7205 46.8223 25.4021 46.8223 24.8451V13.8031C46.8223 13.2792 47.1273 12.9742 47.6596 12.9742H49.2692C50.0092 12.9742 50.1195 13.4715 50.126 13.6904V13.8363C50.5609 13.5113 51.0347 13.2461 51.5474 13.0405C52.2095 12.7752 52.8845 12.6426 53.553 12.6426C54.3514 12.6426 55.0394 12.8084 55.6041 13.1267C56.0779 13.3986 56.4608 13.7435 56.7464 14.1546C57.2851 13.6904 57.9017 13.3256 58.5832 13.0736C59.3556 12.7885 60.1475 12.6426 60.9329 12.6426C61.887 12.6426 62.6788 12.8548 63.2824 13.266C63.8796 13.6771 64.3274 14.148 64.613 14.6653C64.8597 15.1693 65.0219 15.7264 65.1128 16.3299C65.1972 16.9201 65.2361 17.6363 65.2361 18.452V24.8451C65.2361 25.4021 64.9311 25.7205 64.3988 25.7205" fill="white"/>
<path id="Vector_3" d="M71.7782 26.0185C70.8695 26.0185 70.0712 25.8394 69.4026 25.488C68.7406 25.1365 68.1759 24.6523 67.7346 24.0488C67.2997 23.452 66.9752 22.7556 66.7675 21.9797C66.5663 21.2104 66.4624 20.3947 66.4624 19.5525C66.4624 18.4317 66.6182 17.4303 66.9232 16.5748C67.2283 15.7127 67.6437 14.9832 68.1564 14.4062C68.6692 13.8293 69.2729 13.3849 69.9479 13.0799C70.6164 12.7815 71.3239 12.6289 72.0443 12.6289C72.7648 12.6289 73.3879 12.7748 73.9915 13.06C74.3874 13.2457 74.7314 13.4778 75.017 13.7497V13.6436C75.069 13.2059 75.3481 12.9605 75.7829 12.9605H77.5159C77.9962 12.9605 78.2753 13.2523 78.2753 13.763V22.5302C78.2753 22.9281 78.3337 23.0607 78.3597 23.0939C78.3791 23.1071 78.4181 23.1204 78.483 23.1204H78.6777C79.1061 23.1204 79.3657 23.3724 79.3657 23.7969V24.9839C79.3657 25.4415 79.0931 25.7134 78.6323 25.7134H77.4445C76.7435 25.7134 76.2113 25.5543 75.8543 25.2359C75.6077 25.0171 75.4259 24.7585 75.3091 24.46C75.1858 24.5927 75.0495 24.7253 74.8872 24.8513C74.6016 25.0834 74.2901 25.2824 73.9526 25.4482C73.6215 25.614 73.2646 25.7532 72.9011 25.8593C72.5246 25.9654 72.1482 26.0185 71.7847 26.0185M72.6025 15.6331C72.2585 15.6331 71.934 15.7127 71.6289 15.8586C71.3239 16.0111 71.0513 16.2366 70.8241 16.535C70.5904 16.8401 70.4022 17.2247 70.2594 17.689C70.1166 18.1598 70.0452 18.7169 70.0452 19.3469C70.0452 19.8642 70.0907 20.3616 70.188 20.8125C70.2789 21.2569 70.4282 21.6482 70.6294 21.9731C70.8241 22.2914 71.0707 22.5501 71.3693 22.7424C71.6614 22.9281 72.0119 23.0209 72.4272 23.0209C72.6934 23.0209 72.9595 22.9745 73.2061 22.875C73.4658 22.7755 73.7124 22.6429 73.9266 22.497C74.1408 22.3511 74.3225 22.1853 74.4718 21.9996C74.6081 21.8272 74.725 21.6614 74.8093 21.489V16.7473C74.5886 16.4356 74.2771 16.1769 73.8876 15.9647C73.4722 15.7392 73.0374 15.6265 72.6025 15.6265" fill="white"/>
<path id="Vector_4" d="M83.1044 25.7135H81.2222C80.7094 25.7135 80.4108 25.4018 80.4108 24.858V8.27857C80.4108 7.98677 80.4757 7.78119 80.612 7.65518C80.7289 7.54907 80.8846 7.47613 81.0988 7.4297L83.1498 7.14453C83.6107 7.14453 83.8833 7.44297 83.8833 7.94698V24.8315C83.8833 25.3886 83.5977 25.7069 83.0979 25.7069" fill="white"/>
<path id="Vector_5" d="M88.1019 25.7128H86.2196C85.7068 25.7128 85.4083 25.4011 85.4083 24.8573V8.27779C85.4083 7.98599 85.4732 7.78041 85.6095 7.6544C85.7263 7.54829 85.8821 7.47534 86.0963 7.43555L88.1473 7.15039C88.6082 7.15039 88.8808 7.44882 88.8808 7.95283V24.8374C88.8808 25.3944 88.5952 25.7128 88.0954 25.7128" fill="white"/>
<path id="Vector_6" d="M96.2414 26.0177C94.2683 26.0177 92.73 25.4209 91.672 24.247C90.6205 23.0798 90.0883 21.4617 90.0883 19.4522C90.0883 18.4508 90.2376 17.5224 90.5232 16.6934C90.8153 15.8578 91.2372 15.1283 91.7889 14.5315C92.3406 13.9346 93.0156 13.4637 93.801 13.1321C94.5863 12.8006 95.482 12.6348 96.4686 12.6348C97.0398 12.6348 97.6239 12.6944 98.2016 12.8138C98.7792 12.9332 99.3439 13.1189 99.8827 13.3576C100.129 13.4836 100.266 13.6295 100.292 13.802C100.311 13.928 100.305 14.0871 100.266 14.2861L99.9411 15.639C99.8437 16.1098 99.5646 16.1828 99.4088 16.1828C99.3179 16.1828 99.2076 16.1496 99.0388 16.0634C98.6884 15.9175 98.3184 15.7915 97.9355 15.6854C97.559 15.5793 97.1696 15.5329 96.7607 15.5329C95.7546 15.5329 95.0082 15.8512 94.476 16.5144C93.9373 17.1842 93.6646 18.1193 93.6646 19.2997C93.6646 20.4802 93.9178 21.402 94.424 22.1116C94.9173 22.8079 95.6443 23.1462 96.6438 23.1462C97.1501 23.1462 97.5915 23.0997 97.9614 23.0135C98.3314 22.9273 98.7338 22.788 99.1492 22.609C99.3245 22.5427 99.4737 22.5161 99.5971 22.5294C99.7983 22.5493 99.941 22.7085 100.019 23.0003L100.337 24.1078C100.395 24.32 100.421 24.4858 100.421 24.6052C100.421 24.7975 100.337 25.0561 99.9281 25.2352C99.3309 25.527 98.7208 25.7326 98.1367 25.8453C97.5525 25.958 96.9229 26.0111 96.2479 26.0111" fill="white"/>
<path id="Vector_7" d="M106.756 26.0177C105.724 26.0177 104.809 25.8453 104.037 25.5071C103.264 25.1622 102.615 24.6847 102.115 24.0746C101.616 23.4711 101.239 22.7549 100.992 21.9392C100.746 21.1367 100.622 20.2481 100.622 19.2997C100.622 18.3514 100.759 17.4826 101.031 16.6802C101.304 15.8711 101.719 15.1548 102.258 14.558C102.797 13.9611 103.465 13.4903 104.231 13.1454C105.004 12.8072 105.899 12.6348 106.899 12.6348C107.898 12.6348 108.846 12.8006 109.612 13.1321C110.384 13.4637 111.033 13.9412 111.533 14.5381C112.033 15.1349 112.409 15.8512 112.656 16.6735C112.903 17.4892 113.026 18.3779 113.026 19.3262C113.026 20.2746 112.89 21.1367 112.617 21.9458C112.344 22.7549 111.929 23.4777 111.39 24.0812C110.852 24.6847 110.183 25.1688 109.404 25.5071C108.625 25.8453 107.736 26.0177 106.75 26.0177M106.873 15.5262C106.373 15.5262 105.951 15.6323 105.607 15.8313C105.263 16.0369 104.991 16.3088 104.783 16.6337C104.575 16.972 104.426 17.3699 104.335 17.8142C104.238 18.2784 104.192 18.7559 104.192 19.24C104.192 19.7241 104.238 20.2414 104.322 20.7123C104.406 21.1699 104.549 21.5877 104.75 21.9524C104.945 22.3039 105.205 22.5891 105.536 22.8013C105.854 23.0135 106.269 23.113 106.769 23.113C107.269 23.113 107.684 23.0135 108.015 22.8079C108.353 22.6023 108.625 22.3238 108.84 21.979C109.054 21.6275 109.21 21.2163 109.3 20.772C109.398 20.3077 109.443 19.8236 109.443 19.3196C109.443 18.8156 109.398 18.3248 109.313 17.8606C109.229 17.4097 109.086 17.0051 108.885 16.647C108.69 16.3022 108.431 16.0302 108.1 15.8247C107.775 15.6257 107.36 15.5196 106.866 15.5196" fill="white"/>
<path id="Vector_8" d="M131.907 25.7138H130.161C129.596 25.7138 129.272 25.3955 129.272 24.8384V17.9148C129.272 17.5965 129.246 17.2915 129.2 17.0063C129.155 16.7476 129.07 16.5288 128.954 16.3431C128.837 16.1707 128.674 16.0248 128.473 15.9187C128.272 15.8126 127.993 15.7595 127.655 15.7595C127.214 15.7595 126.747 15.8656 126.279 16.0712C125.845 16.2569 125.455 16.489 125.118 16.7609C125.124 16.867 125.131 17.0328 125.137 17.3047C125.144 17.696 125.157 18.1204 125.163 18.5847C125.17 19.0489 125.176 19.4799 125.189 19.8845C125.196 20.289 125.202 20.5344 125.202 20.6206V24.8451C125.202 25.4021 124.897 25.7205 124.365 25.7205H122.729C122.171 25.7205 121.846 25.4021 121.846 24.8451V17.9215C121.846 17.6031 121.827 17.2915 121.788 17.0063C121.756 16.7476 121.678 16.5288 121.567 16.3497C121.457 16.1707 121.308 16.038 121.113 15.9253C120.918 15.8192 120.652 15.7661 120.315 15.7661C119.873 15.7661 119.432 15.8789 118.991 16.1044C118.569 16.3232 118.166 16.5885 117.809 16.8936V24.8451C117.809 25.4021 117.498 25.7205 116.952 25.7205H115.219C114.655 25.7205 114.337 25.4021 114.337 24.8451V13.8031C114.337 13.2792 114.642 12.9742 115.174 12.9742H116.784C117.524 12.9742 117.634 13.4715 117.64 13.6904V13.8363C118.075 13.5113 118.549 13.2461 119.055 13.0405C119.717 12.7752 120.392 12.6426 121.061 12.6426C121.859 12.6426 122.547 12.8084 123.112 13.1267C123.586 13.3986 123.969 13.7435 124.254 14.1546C124.793 13.6904 125.41 13.3256 126.091 13.0736C126.864 12.7885 127.655 12.6426 128.441 12.6426C129.395 12.6426 130.187 12.8548 130.79 13.266C131.388 13.6771 131.835 14.148 132.121 14.6653C132.368 15.1693 132.53 15.7264 132.621 16.3299C132.705 16.9201 132.744 17.6297 132.744 18.452V24.8451C132.744 25.4021 132.439 25.7205 131.907 25.7205" fill="white"/>
<path id="Vector_9" d="M152.314 25.7138H150.568C150.003 25.7138 149.678 25.3955 149.678 24.8384V17.9148C149.678 17.5965 149.652 17.2915 149.607 17.0063C149.562 16.7476 149.477 16.5288 149.36 16.3431C149.243 16.1707 149.081 16.0248 148.88 15.9187C148.679 15.8126 148.4 15.7595 148.062 15.7595C147.621 15.7595 147.154 15.8656 146.686 16.0712C146.251 16.2569 145.862 16.489 145.524 16.7609C145.531 16.867 145.537 17.0328 145.544 17.3047C145.55 17.696 145.563 18.1204 145.57 18.5847C145.576 19.0489 145.583 19.4799 145.596 19.8845C145.602 20.289 145.609 20.5344 145.609 20.6206V24.8451C145.609 25.4021 145.304 25.7205 144.771 25.7205H143.136C142.578 25.7205 142.253 25.4021 142.253 24.8451V17.9215C142.253 17.6031 142.234 17.2915 142.195 17.0063C142.162 16.7476 142.084 16.5288 141.974 16.3497C141.864 16.1707 141.714 16.038 141.52 15.9253C141.325 15.8192 141.052 15.7661 140.721 15.7661C140.28 15.7661 139.839 15.8789 139.397 16.1044C138.975 16.3232 138.573 16.5885 138.216 16.8936V24.8451C138.216 25.4021 137.904 25.7205 137.359 25.7205H135.626C135.061 25.7205 134.743 25.4021 134.743 24.8451V13.8031C134.743 13.2792 135.049 12.9742 135.581 12.9742H137.19C137.93 12.9742 138.041 13.4715 138.047 13.6904V13.8363C138.482 13.5113 138.956 13.2461 139.462 13.0405C140.124 12.7752 140.799 12.6426 141.468 12.6426C142.266 12.6426 142.954 12.8084 143.519 13.1267C143.993 13.3986 144.376 13.7435 144.661 14.1546C145.2 13.6904 145.816 13.3256 146.498 13.0736C147.27 12.7885 148.062 12.6426 148.848 12.6426C149.802 12.6426 150.594 12.8548 151.197 13.266C151.794 13.6771 152.242 14.148 152.528 14.6653C152.774 15.1693 152.937 15.7264 153.028 16.3299C153.112 16.9201 153.151 17.6297 153.151 18.452V24.8451C153.151 25.4021 152.846 25.7205 152.314 25.7205" fill="white"/>
<path id="Vector_10" d="M154.721 6.91211C153.572 6.91211 152.644 7.86045 152.644 9.03428C152.644 10.2081 153.572 11.1564 154.721 11.1564C155.87 11.1564 156.798 10.2081 156.798 9.03428C156.798 7.86045 155.87 6.91211 154.721 6.91211ZM154.721 10.8646C153.728 10.8646 152.93 10.0423 152.93 9.03428C152.93 8.02625 153.735 7.2039 154.721 7.2039C155.708 7.2039 156.513 8.02625 156.513 9.03428C156.513 10.0423 155.708 10.8646 154.721 10.8646Z" fill="white"/>
<path id="Vector_11" d="M154.469 8.43704L154.456 8.59621C154.456 8.59621 154.449 8.62937 154.437 8.636C154.424 8.64263 154.411 8.64926 154.391 8.64926H154.054V9.71034C154.054 9.71034 154.054 9.74351 154.047 9.75014C154.047 9.75014 154.028 9.75677 154.008 9.75677H153.787C153.787 9.75677 153.755 9.75678 153.749 9.75014C153.749 9.75014 153.742 9.73024 153.742 9.71034V8.64264H153.392C153.353 8.64264 153.34 8.62273 153.34 8.58294V8.43704C153.34 8.43704 153.359 8.39062 153.392 8.39062H154.43C154.462 8.39062 154.482 8.40388 154.475 8.43704" fill="white"/>
<path id="Vector_12" d="M156.071 9.69709C156.071 9.73688 156.058 9.75677 156.019 9.75677H155.825C155.825 9.75677 155.779 9.75014 155.773 9.73688C155.766 9.72361 155.76 9.70372 155.76 9.67719L155.74 9.00075L155.448 9.71698C155.448 9.71698 155.429 9.75014 155.422 9.75014C155.409 9.75014 155.396 9.75677 155.383 9.75677H155.312C155.312 9.75677 155.279 9.75678 155.266 9.75014C155.253 9.74351 155.247 9.73024 155.234 9.71034L154.903 9.00075L154.89 9.69709C154.89 9.69709 154.89 9.74351 154.87 9.75014C154.857 9.75014 154.845 9.75677 154.825 9.75677H154.669C154.624 9.75677 154.604 9.73687 154.604 9.69045L154.656 8.45031C154.656 8.45031 154.663 8.41052 154.676 8.40389C154.689 8.39726 154.702 8.39062 154.721 8.39062H154.857C154.857 8.39062 154.896 8.39063 154.909 8.40389C154.922 8.41052 154.929 8.42379 154.942 8.44368L155.37 9.33897L155.753 8.44368C155.753 8.44368 155.773 8.41715 155.779 8.40389C155.786 8.39063 155.805 8.39062 155.831 8.39062H155.967C155.967 8.39062 156 8.39063 156.006 8.40389C156.013 8.41052 156.019 8.42379 156.019 8.44368L156.084 9.70372L156.071 9.69709Z" fill="white"/>
</g>
</g>
</g>
</svg>
