<svg xmlns="http://www.w3.org/2000/svg" width="250" height="56" viewBox="0 0 250 56" fill="none">
    <path d="M28.76 56C44.224 56 56.76 43.464 56.76 28C56.76 12.536 44.224 0 28.76 0C13.296 0 0.76001 12.536 0.76001 28C0.76001 43.464 13.296 56 28.76 56Z" fill="#591C69"/>
    <path d="M42.6469 38.5714H40.6959C40.5776 38.584 40.4581 38.5693 40.3464 38.5283C40.2348 38.4873 40.1341 38.4212 40.0521 38.3351C39.9701 38.2489 39.909 38.1451 39.8736 38.0315C39.8382 37.918 39.8294 37.7979 39.8479 37.6804V25.7614C39.8479 22.7064 39.0839 20.5854 35.6479 20.5854C33.7185 20.6908 31.8683 21.3869 30.3479 22.5794C30.6063 24.1207 30.7198 25.6829 30.6869 27.2454V37.6814C30.6869 38.2754 30.4319 38.5724 29.8809 38.5724H27.9289C27.8106 38.585 27.6911 38.5703 27.5794 38.5293C27.4678 38.4883 27.3671 38.4222 27.2851 38.3361C27.2031 38.2499 27.142 38.1461 27.1066 38.0325C27.0712 37.919 27.0624 37.7989 27.0809 37.6814V25.7614C27.0809 22.8344 26.4449 20.5854 23.0929 20.5854C21.0145 20.7315 19.0575 21.6186 17.5779 23.0854V37.6794C17.5779 38.2734 17.3229 38.5704 16.7719 38.5704H14.7779C14.2259 38.5704 13.9719 38.2704 13.9719 37.6794V18.9314C13.9568 18.8201 13.9669 18.7069 14.0015 18.6C14.036 18.4932 14.0941 18.3955 14.1715 18.3141C14.2488 18.2327 14.3435 18.1697 14.4484 18.1298C14.5534 18.0899 14.666 18.074 14.7779 18.0834H16.6019C17.1109 18.0834 17.4499 18.2954 17.4499 18.8464L17.4919 20.1614C19.26 18.5569 21.5525 17.652 23.9399 17.6164C25.0078 17.5425 26.0767 17.7458 27.043 18.2066C28.0093 18.6674 28.8401 19.37 29.4549 20.2464C31.4255 18.5504 33.9389 17.6172 36.5389 17.6164C39.3809 17.6164 41.1629 18.6774 42.1809 20.2464C43.1298 21.969 43.5708 23.9253 43.4529 25.8884V37.6824C43.4529 38.2714 43.1979 38.5714 42.6469 38.5714Z" fill="white"/>
    <path d="M245.805 10.7352C245.405 10.74 245.01 10.8243 244.642 10.9832C244.467 11.0598 244.3 11.1522 244.142 11.2592C243.984 11.3677 243.835 11.4899 243.697 11.6242C243.424 11.8974 243.204 12.2193 243.049 12.5732C242.854 13.0316 242.775 13.5311 242.819 14.0274C242.863 14.5238 243.028 15.0016 243.301 15.4185C243.574 15.8355 243.945 16.1788 244.382 16.4178C244.82 16.6569 245.309 16.7845 245.807 16.7892H245.822C246.026 16.7898 246.229 16.769 246.428 16.7272C246.616 16.6816 246.799 16.6166 246.974 16.5332C247.155 16.4584 247.327 16.3653 247.488 16.2552C247.975 15.9282 248.357 15.4674 248.588 14.9282C248.75 14.5599 248.834 14.1624 248.836 13.7602C248.838 13.555 248.818 13.3501 248.776 13.1492C248.736 12.9543 248.677 12.7637 248.6 12.5802C248.525 12.4001 248.432 12.2279 248.322 12.0662C247.995 11.5794 247.534 11.1974 246.995 10.9662C246.628 10.8045 246.231 10.7198 245.83 10.7172H245.805V10.7352ZM245.805 17.1952H245.79C245.559 17.1949 245.328 17.1707 245.102 17.1232C244.227 16.9385 243.459 16.4198 242.96 15.6772C242.71 15.3062 242.535 14.8892 242.446 14.4502C242.354 13.9935 242.354 13.523 242.446 13.0662C242.492 12.8449 242.559 12.6285 242.646 12.4202C242.816 12.0135 243.067 11.6457 243.384 11.3392C243.538 11.1855 243.705 11.046 243.884 10.9222C244.261 10.6722 244.683 10.4977 245.126 10.4082C245.351 10.3593 245.579 10.3312 245.809 10.3242C246.484 10.3295 247.142 10.5308 247.704 10.9037C248.266 11.2766 248.707 11.8049 248.974 12.4242C249.063 12.6321 249.13 12.8486 249.174 13.0702C249.269 13.5257 249.269 13.9957 249.174 14.4512C249.082 14.8881 248.907 15.303 248.657 15.6732C248.344 16.1403 247.92 16.5228 247.423 16.7867C246.927 17.0507 246.373 17.1879 245.81 17.1862" fill="#591C69"/>
    <path d="M246.187 14.9341H245.787C245.757 14.9341 245.76 14.9191 245.76 14.8991V12.6251C245.76 12.5851 245.76 12.5781 245.807 12.5781H246.431C246.458 12.5781 246.473 12.5781 246.481 12.6151C246.614 13.1218 246.748 13.6271 246.881 14.1311C246.883 14.1454 246.888 14.159 246.896 14.1711C246.911 14.1711 246.911 14.1441 246.913 14.1291C247.046 13.6325 247.18 13.1305 247.313 12.6231C247.313 12.5931 247.333 12.5831 247.365 12.5831H247.998C248.025 12.5831 248.038 12.5831 248.038 12.6201V14.8981C248.038 14.9281 248.038 14.9381 248.001 14.9381H247.638C247.601 14.9381 247.598 14.9261 247.598 14.8931V13.1291L247.245 14.5291C247.213 14.6531 247.18 14.7771 247.151 14.9041C247.151 14.9341 247.131 14.9411 247.101 14.9411H246.723C246.691 14.9411 246.683 14.9411 246.676 14.9011L246.239 13.1621V13.1301C246.239 13.1301 246.226 13.1301 246.226 13.1471V14.9361" fill="#591C69"/>
    <path d="M244.754 13.961V14.895C244.754 14.927 244.754 14.94 244.714 14.937H244.331C244.294 14.937 244.284 14.937 244.284 14.89V13.039C244.284 12.969 244.284 12.98 244.227 12.98H243.627C243.595 12.98 243.587 12.98 243.587 12.94V12.617C243.587 12.59 243.587 12.582 243.619 12.582H245.419C245.449 12.582 245.454 12.582 245.454 12.619V12.942C245.454 12.974 245.454 12.979 245.414 12.979H244.795C244.76 12.979 244.753 12.979 244.753 13.021V13.96" fill="#591C69"/>
    <path d="M247.578 13.1129C247.578 13.1027 247.583 13.0931 247.59 13.0859V13.1129H247.575" fill="#591C69"/>
    <path d="M101.631 38.918V29.5179C101.812 27.3693 101.535 25.2068 100.819 23.1729C100.28 22.0843 99.4341 21.1771 98.3859 20.5627C97.3377 19.9484 96.1328 19.6537 94.9194 19.715C92.2952 19.672 89.7573 20.6522 87.8434 22.448C87.324 21.5739 86.5765 20.8577 85.681 20.3762C84.7856 19.8948 83.7759 19.6662 82.7603 19.715C80.6244 19.7475 78.5671 20.5257 76.9444 21.9149L76.8624 21.142C76.7804 20.531 76.3624 20.287 75.6824 20.287H72.3454C71.6544 20.287 71.2074 20.6119 71.2074 21.3449V38.9149C71.2074 39.8089 71.6144 40.0949 72.4694 40.0949H76.1294C76.9414 40.0949 77.3094 39.7689 77.3094 38.9149V26.796C78.3524 25.7858 79.7229 25.1826 81.1724 25.0959C83.0034 25.0959 83.3723 26.396 83.3723 28.025V38.925C83.3723 39.819 83.7794 40.1049 84.6324 40.1049H87.9694C88.7814 40.1049 89.1494 39.779 89.1494 38.925V26.796C90.3217 25.7875 91.7919 25.1905 93.3354 25.0959C95.1664 25.0959 95.5354 26.396 95.5354 28.025V38.925C95.5354 39.819 95.9423 40.1049 96.7953 40.1049H100.457C101.269 40.1049 101.637 39.779 101.637 38.925" fill="#591C69"/>
    <path d="M125.985 38.931V36.591C125.985 35.985 125.702 35.784 125.138 35.784H124.82C124.375 35.784 124.214 35.501 124.214 35.098V21.184C124.237 20.9495 124.165 20.7157 124.015 20.534C123.865 20.3523 123.649 20.2376 123.414 20.215C123.359 20.2102 123.304 20.2102 123.248 20.215H119.606C119.378 20.2065 119.155 20.2851 118.983 20.435C118.81 20.5848 118.701 20.7947 118.677 21.022L118.555 21.909C117.967 21.1752 117.216 20.5888 116.361 20.1963C115.506 19.8038 114.572 19.6161 113.631 19.648C109.191 19.648 104.754 23.28 104.754 30.423C104.754 35.79 107.454 40.391 113.268 40.391C115.38 40.3167 117.39 39.4698 118.918 38.011H119C119.524 39.181 120.491 39.867 122.873 39.867H125.012C125.127 39.8792 125.244 39.8686 125.354 39.8359C125.465 39.8031 125.569 39.7488 125.658 39.6761C125.748 39.6033 125.823 39.5136 125.878 39.412C125.933 39.3104 125.968 39.199 125.979 39.084C125.983 39.0361 125.983 38.9879 125.979 38.94M118.15 33.815C117.285 34.8007 116.068 35.4087 114.759 35.509C111.693 35.509 111.047 32.528 111.047 30.021C111.047 26.267 112.903 24.655 114.881 24.655C116.093 24.7385 117.243 25.2206 118.151 26.026L118.15 33.815Z" fill="#591C69"/>
    <path d="M134.62 38.9595V11.9535C134.62 11.3025 134.337 10.9375 133.765 10.9375H133.358L129.5 11.4665C128.889 11.5485 128.524 11.7915 128.524 12.6045V38.9995C128.509 39.1293 128.52 39.2608 128.556 39.3864C128.592 39.512 128.653 39.6292 128.734 39.7313C128.816 39.8335 128.917 39.9186 129.031 39.9818C129.145 40.045 129.271 40.085 129.401 40.0995C129.474 40.1094 129.549 40.1094 129.622 40.0995H133.567C134.218 40.0995 134.623 39.7345 134.623 38.9615" fill="#591C69"/>
    <path d="M143.412 38.9595V11.9535C143.412 11.3025 143.129 10.9375 142.557 10.9375H142.149L138.286 11.4665C137.677 11.5485 137.31 11.7915 137.31 12.6045V38.9995C137.295 39.1293 137.306 39.2608 137.342 39.3864C137.378 39.512 137.439 39.6292 137.52 39.7313C137.602 39.8335 137.702 39.9186 137.817 39.9818C137.931 40.045 138.057 40.085 138.187 40.0995C138.26 40.1094 138.334 40.1094 138.408 40.0995H142.353C143.004 40.0995 143.409 39.7345 143.409 38.9615" fill="#591C69"/>
    <path d="M160.603 38.6412C160.592 38.4902 160.565 38.3409 160.521 38.1962L160.156 37.0632C160.074 36.7802 159.956 36.6632 159.756 36.6632C159.644 36.6755 159.535 36.7031 159.431 36.7452C158.003 37.3835 156.457 37.7143 154.894 37.7162C150.559 37.7162 148.777 34.1512 148.777 30.0162C148.777 25.4792 151.207 22.6022 155.058 22.6022C156.522 22.6303 157.964 22.9762 159.282 23.6161C159.39 23.6881 159.516 23.7302 159.647 23.7382C159.896 23.7382 160.012 23.5382 160.092 23.2382L160.417 21.9382C160.464 21.8354 160.491 21.7249 160.499 21.6122C160.499 21.4927 160.459 21.3765 160.387 21.2813C160.315 21.1862 160.214 21.1173 160.099 21.0852C158.478 20.3169 156.707 19.9156 154.914 19.9102C148.837 19.9102 145.225 24.2032 145.225 30.1612C145.225 36.1962 148.303 40.3302 154.666 40.3302C156.552 40.3431 158.417 39.942 160.132 39.1552C160.497 38.9932 160.632 38.8722 160.632 38.6282" fill="#591C69"/>
    <path d="M180.799 30.351C180.799 24.418 177.937 20.043 171.606 20.043C165.512 20.043 162.197 24.543 162.197 30.311C162.197 36.159 165.019 40.6609 171.36 40.6609C177.454 40.6609 180.801 36.119 180.801 30.353M177.201 30.393C177.201 34.199 175.688 37.961 171.392 37.961C167.057 37.961 165.792 33.986 165.792 30.229C165.792 26.629 167.141 22.743 171.561 22.743C175.814 22.743 177.206 26.586 177.206 30.393" fill="#591C69"/>
    <path d="M213.287 39.2374V27.9304C213.4 26.0483 212.977 24.1727 212.067 22.5214C211.466 21.6631 210.65 20.9782 209.7 20.5354C208.751 20.0927 207.701 19.9078 206.658 19.9994C204.165 20.0022 201.756 20.8968 199.866 22.5214C199.276 21.6824 198.481 21.0095 197.555 20.5677C196.63 20.1259 195.607 19.9302 194.584 19.9994C192.295 20.0342 190.098 20.9017 188.403 22.4394L188.363 21.1794C188.363 20.6504 188.038 20.4464 187.548 20.4464H185.809C185.619 20.4306 185.431 20.4909 185.285 20.6139C185.14 20.7369 185.049 20.9127 185.034 21.1024C185.027 21.1546 185.027 21.2073 185.034 21.2594V39.2374C185.034 39.8064 185.282 40.0924 185.807 40.0924H187.718C188.247 40.0924 188.491 39.8094 188.491 39.2374V25.2434C189.909 23.8369 191.785 22.9854 193.778 22.8434C196.99 22.8434 197.602 24.9994 197.602 27.8124V39.2434C197.587 39.3402 197.591 39.439 197.614 39.5341C197.638 39.6292 197.679 39.7188 197.737 39.7978C197.795 39.8767 197.868 39.9435 197.952 39.9942C198.036 40.0449 198.129 40.0787 198.226 40.0934C198.288 40.1038 198.352 40.1055 198.415 40.0984H200.286C200.815 40.0984 201.059 39.8154 201.059 39.2434V29.2324C201.091 27.7348 200.982 26.2376 200.734 24.7604C202.193 23.6186 203.967 22.9519 205.817 22.8504C209.111 22.8504 209.842 24.8824 209.842 27.8194V39.2434C209.827 39.3402 209.831 39.439 209.854 39.5342C209.877 39.6294 209.919 39.7191 209.977 39.798C210.035 39.877 210.108 39.9438 210.192 39.9944C210.276 40.0451 210.369 40.0788 210.466 40.0934C210.528 40.1021 210.592 40.1021 210.655 40.0934H212.526C213.055 40.0934 213.299 39.8104 213.299 39.2384" fill="#591C69"/>
    <path d="M244.769 39.2374V27.9304C244.882 26.0483 244.459 24.1727 243.549 22.5214C242.948 21.6631 242.132 20.9782 241.182 20.5354C240.233 20.0927 239.183 19.9078 238.14 19.9994C235.647 20.002 233.237 20.8966 231.347 22.5214C230.757 21.6821 229.96 21.009 229.034 20.5673C228.108 20.1255 227.084 19.9299 226.06 19.9994C223.771 20.0341 221.574 20.9016 219.879 22.4394L219.837 21.1794C219.837 20.6504 219.512 20.4464 219.025 20.4464H217.286C217.096 20.4306 216.908 20.4909 216.762 20.6139C216.617 20.7369 216.527 20.9127 216.511 21.1024C216.505 21.1546 216.505 21.2073 216.511 21.2594V39.2374C216.511 39.8064 216.759 40.0924 217.284 40.0924H219.194C219.723 40.0924 219.967 39.8094 219.967 39.2374V25.2434C221.385 23.8369 223.261 22.9855 225.254 22.8434C228.466 22.8434 229.078 24.9994 229.078 27.8124V39.2434C229.063 39.3402 229.067 39.439 229.091 39.5341C229.114 39.6292 229.156 39.7188 229.214 39.7978C229.272 39.8767 229.345 39.9435 229.428 39.9942C229.512 40.0449 229.605 40.0787 229.702 40.0934C229.764 40.1038 229.828 40.1055 229.891 40.0984H231.762C232.291 40.0984 232.537 39.8154 232.537 39.2434V29.2324C232.569 27.7348 232.46 26.2376 232.212 24.7604C233.671 23.6186 235.445 22.9519 237.295 22.8504C240.589 22.8504 241.32 24.8824 241.32 27.8194V39.2434C241.305 39.3402 241.309 39.439 241.333 39.5341C241.356 39.6292 241.398 39.7188 241.456 39.7978C241.514 39.8767 241.586 39.9435 241.67 39.9942C241.754 40.0449 241.847 40.0787 241.944 40.0934C242.007 40.1021 242.07 40.1021 242.133 40.0934H244.004C244.533 40.0934 244.777 39.8104 244.777 39.2384" fill="#591C69"/>
</svg>